<svg xmlns="http://www.w3.org/2000/svg" viewBox="0 0 760 560" role="img" aria-labelledby="title desc">
  <title id="title">Higienização de ar condicionado Split residencial</title>
  <desc id="desc">Ilustração de um aparelho Split limpo, com fluxo de ar e símbolos de proteção e bem-estar.</desc>
  <defs>
    <linearGradient id="panel" x1="0" x2="1" y1="0" y2="1">
      <stop offset="0" stop-color="#ffffff"/>
      <stop offset="1" stop-color="#e8eef6"/>
    </linearGradient>
    <linearGradient id="green" x1="0" x2="1">
      <stop offset="0" stop-color="#a9cd4a"/>
      <stop offset="1" stop-color="#7da624"/>
    </linearGradient>
    <filter id="shadow" x="-30%" y="-30%" width="160%" height="180%">
      <feDropShadow dx="0" dy="18" stdDeviation="18" flood-color="#000814" flood-opacity=".32"/>
    </filter>
  </defs>

  <circle cx="390" cy="284" r="232" fill="#ffffff" opacity=".04"/>
  <circle cx="390" cy="284" r="190" fill="none" stroke="#cdaa4b" stroke-opacity=".22" stroke-width="2"/>

  <g filter="url(#shadow)">
    <rect x="94" y="116" width="528" height="188" rx="34" fill="url(#panel)"/>
    <path d="M118 232h480v40a20 20 0 0 1-20 20H138a20 20 0 0 1-20-20Z" fill="#dce5ee"/>
    <rect x="146" y="252" width="380" height="12" rx="6" fill="#8a898a" opacity=".48"/>
    <circle cx="562" cy="164" r="8" fill="#a9cd4a"/>
    <path d="M560 205h25" stroke="#071426" stroke-width="6" stroke-linecap="round" opacity=".18"/>
  </g>

  <g fill="none" stroke-linecap="round">
    <path d="M184 332c62 42 150 44 220 4" stroke="#a9cd4a" stroke-width="12" opacity=".92"/>
    <path d="M152 368c86 67 204 73 300 12" stroke="#cdaa4b" stroke-width="9" opacity=".9"/>
    <path d="M194 406c74 48 178 50 254 6" stroke="#ffffff" stroke-opacity=".5" stroke-width="6"/>
  </g>

  <g transform="translate(478 318)">
    <path d="M96 0 172 27v58c0 62-38 110-76 126-38-16-76-64-76-126V27Z" fill="#071426" stroke="#a9cd4a" stroke-width="8"/>
    <path d="m64 102 22 22 45-50" fill="none" stroke="#a9cd4a" stroke-width="12" stroke-linecap="round" stroke-linejoin="round"/>
  </g>

  <g transform="translate(50 302)">
    <path d="M68 12 8 62v102h120V62Z" fill="#132b4d" stroke="#cdaa4b" stroke-width="5"/>
    <path d="M48 164v-58h40v58" fill="#071426"/>
    <path d="M27 82h22v22H27Zm60 0h22v22H87Z" fill="#a9cd4a"/>
  </g>

  <g fill="#ffffff" opacity=".72">
    <circle cx="666" cy="174" r="9"/>
    <circle cx="690" cy="200" r="5"/>
    <circle cx="70" cy="180" r="7"/>
  </g>
</svg>
